# xmcd
#
# Track frame offsets:
#	150
#	17257
#	33168
#	47436
#	60860
#	82887
#	97724
#	109631
#	127451
#	143574
#	161551
#
# Disc length: 2331 seconds
#
# Revision: 0
# Processed by: cddbd v1.5.2PL0 Copyright (c) Steve Scherf et al.
# Submitted via: EZCDAudioConverter 1.3.4.1
#
DISCID=7309190b
DTITLE=Budos Band - Budos Band III
DYEAR=1900
DGENRE=
TTITLE0=Rite Of The Ancients
TTITLE1=Black Venom
TTITLE2=River Serpentine
TTITLE3=Unbroken, Unshaven
TTITLE4=Nature's Wrath
TTITLE5=Golden Dunes
TTITLE6=Budos Dirge
TTITLE7=Raja Haje
TTITLE8=Crimson Skies
TTITLE9=Mark Of The Unnamed
TTITLE10=Reppirt Yad
EXTD=
EXTT0=
EXTT1=
EXTT2=
EXTT3=
EXTT4=
EXTT5=
EXTT6=
EXTT7=
EXTT8=
EXTT9=
EXTT10=
PLAYORDER=
